<svg xmlns="http://www.w3.org/2000/svg" viewBox="0 0 1024 1024">
  <defs>
    <linearGradient id="g1" x1="0" y1="0" x2="1" y2="1">
      <stop offset="0%" stop-color="#0F72F6"/>
      <stop offset="100%" stop-color="#085EC9"/>
    </linearGradient>
    <filter id="s" x="-20%" y="-20%" width="140%" height="140%">
      <feDropShadow dx="0" dy="14" stdDeviation="28" flood-color="#0F72F6" flood-opacity="0.22"/>
    </filter>
  </defs>
  <rect width="1024" height="1024" rx="240" fill="#F8FAFC"/>
  <rect x="172" y="256" width="680" height="520" rx="80" fill="#E2E8F0" transform="rotate(-8 512 512)"/>
  <rect x="196" y="240" width="680" height="520" rx="80" fill="#CBD5E1" transform="rotate(-4 512 512)"/>
  <rect x="220" y="224" width="680" height="520" rx="80" fill="url(#g1)" filter="url(#s)"/>
  <circle cx="324" cy="352" r="46" fill="#FFFFFF" opacity="0.9"/>
  <path d="M302 352l16 16 30-30" stroke="#0F72F6" stroke-width="8" stroke-linecap="round" stroke-linejoin="round" fill="none"/>
  <rect x="420" y="320" width="392" height="64" rx="32" fill="#FFFFFF" opacity="0.35"/>
  <circle cx="324" cy="472" r="46" fill="#FFFFFF" opacity="0.9"/>
  <path d="M302 472l16 16 30-30" stroke="#0F72F6" stroke-width="8" stroke-linecap="round" stroke-linejoin="round" fill="none"/>
  <rect x="420" y="440" width="312" height="64" rx="32" fill="#FFFFFF" opacity="0.35"/>
  <circle cx="324" cy="592" r="46" fill="#FFFFFF" opacity="0.9"/>
  <rect x="420" y="560" width="344" height="64" rx="32" fill="#FFFFFF" opacity="0.35"/>
</svg>
